<?xml version="1.0" encoding="UTF-8" standalone="no"?>
<svg
   xmlns:dc="http://purl.org/dc/elements/1.1/"
   xmlns:cc="http://creativecommons.org/ns#"
   xmlns:rdf="http://www.w3.org/1999/02/22-rdf-syntax-ns#"
   xmlns:svg="http://www.w3.org/2000/svg"
   xmlns="http://www.w3.org/2000/svg"
   xmlns:sodipodi="http://sodipodi.sourceforge.net/DTD/sodipodi-0.dtd"
   xmlns:inkscape="http://www.inkscape.org/namespaces/inkscape"
   version="1.1"
   width="318.59116"
   height="98.698448"
   viewBox="0 0 318.59115 98.698451"
   id="svg260"
   sodipodi:docname="logosmall.svg"
   inkscape:version="1.0.2-2 (e86c870879, 2021-01-15)">
  <metadata
     id="metadata266">
    <rdf:RDF>
      <cc:Work
         rdf:about="">
        <dc:format>image/svg+xml</dc:format>
        <dc:type
           rdf:resource="http://purl.org/dc/dcmitype/StillImage" />
        <dc:title />
      </cc:Work>
    </rdf:RDF>
  </metadata>
  <defs
     id="defs264" />
  <sodipodi:namedview
     pagecolor="#ffffff"
     bordercolor="#666666"
     borderopacity="1"
     objecttolerance="10"
     gridtolerance="10"
     guidetolerance="10"
     inkscape:pageopacity="0"
     inkscape:pageshadow="2"
     inkscape:window-width="1920"
     inkscape:window-height="991"
     id="namedview262"
     showgrid="false"
     inkscape:zoom="1.0130976"
     inkscape:cx="401.78837"
     inkscape:cy="-26.101351"
     inkscape:window-x="-9"
     inkscape:window-y="-9"
     inkscape:window-maximized="1"
     inkscape:current-layer="g258"
     inkscape:document-rotation="0"
     fit-margin-top="0"
     fit-margin-left="0"
     fit-margin-right="0"
     fit-margin-bottom="0" />
  <g
     transform="translate(-563.05684,-109.67323)"
     id="g258">
    <rect
       style="fill:#ffffff;stroke:#000000;stroke-width:0.388182;stroke-miterlimit:4;stroke-dasharray:none;stroke-opacity:1;paint-order:markers fill stroke"
       id="rect956"
       width="299.45023"
       height="79.481133"
       x="573.25018"
       y="119.8681" />
    <g
       data-paper-data="{&quot;isPaintingLayer&quot;:true}"
       stroke-linejoin="miter"
       stroke-miterlimit="10"
       stroke-dasharray="none"
       stroke-dashoffset="0"
       style="mix-blend-mode:normal"
       id="g256"
       transform="matrix(0.19308414,0,0,0.19530025,583.50046,128.5826)">
      <g
         fill-rule="nonzero"
         stroke="#000000"
         stroke-width="2"
         id="g28">
        <g
           id="g22">
          <path
             d="m 351.85955,299.77358 c -12.02499,0.62587 -26.79943,-6.92833 -37.69798,-15.52686 -9.64257,-7.60765 -16.25113,-16.03283 -15.23709,-20.33345 -3.18677,-4.57478 34.34828,3.89333 33.40894,0.38637 -7.7653,-28.9905 13.90558,-36.34471 13.90558,-36.34471 0,0 40.73143,19.1348 38.30826,37.78271 -0.42043,3.23561 -11.68845,32.943 -32.6877,34.03595 z"
             fill="#e00000"
             stroke-linecap="round"
             id="path2" />
          <path
             d="m 338.64726,218.64347 c 26.64112,-54.69189 68.63068,-8.12099 68.63068,-8.12099"
             fill="#e00000"
             stroke-linecap="round"
             id="path4" />
          <path
             d="m 277.94754,132.30808 c 13.91173,10.53114 95.92995,38.66035 88.44699,57.87449 -4.05807,16.70649 -20.38866,26.34706 -20.45948,27.9603 -1.4463,32.94981 -44.91981,25.20498 -67.03801,14.34678 -5.80476,-2.84964 -21.18375,-37.57857 -12.85056,-60.92304 5.93139,-16.61608 29.23841,-33.97522 29.62703,-34.19725"
             data-paper-data="{&quot;index&quot;:null}"
             fill="#e00000"
             stroke-linecap="round"
             id="path6" />
          <path
             d="m 315.59857,184.63869 c 0,0 25.86309,-4.80396 40.4398,3.81334 22.08593,13.05646 34.95337,43.40716 24.76707,61.01001 -12.11418,20.93429 -48.5185,40.30213 -67.89486,31.29612 -48.57782,-22.57869 -34.0378,-50.90587 -34.0378,-50.90587"
             data-paper-data="{&quot;index&quot;:null}"
             fill="#e00000"
             stroke-linecap="round"
             id="path8" />
          <path
             d="m 488.71433,213.4646 -10.08479,-0.5668 4.97993,-8.14046 13.79411,-4.01265 z"
             fill="#ffd989"
             stroke-linecap="butt"
             id="path10" />
          <path
             d="m 495.10638,224.31274 -7.80745,-1.61142 4.69518,-5.89385 11.15665,-1.59966 z"
             fill="#ffd989"
             stroke-linecap="butt"
             id="path12" />
          <path
             d="m 500.53866,234.0021 -6.41393,-1.3238 3.85717,-4.8419 9.16535,-1.31416 z"
             fill="#ffd989"
             stroke-linecap="butt"
             id="path14" />
          <path
             d="m 383.83715,244.89375 c 0,0 -10.91298,-9.08165 -8.82967,-18.33619 1.60026,-7.10849 12.87103,-14.17354 30.45062,-18.18905 13.19441,-1.24528 46.29234,4.23314 46.29234,4.23314 0,0 8.56452,5.15605 9.52021,5.89431 2.76072,2.13271 9.84589,1.90731 12.9056,14.63668 2.65916,11.06279 -12.22938,16.85393 -12.22938,16.85393 0,0 -20.75883,35.07228 -47.72203,48.61775 -14.22609,7.14674 -47.09082,3.28497 -60.49864,0.0777 -11.07002,-2.64812 -22.92427,-23.79632 -22.92427,-23.79632"
             data-paper-data="{&quot;index&quot;:null}"
             fill="#e00000"
             stroke-linecap="round"
             id="path16" />
          <path
             d="m 360.42863,255.82122 c 0,0 -1.30318,-23.39763 9.20067,-39.71642 5.1193,-7.95333 13.90682,-10.3167 25.35247,-15.00107 33.38035,-13.66155 56.39332,1.61876 57.37466,32.54869"
             fill="#e00000"
             stroke-linecap="round"
             id="path18" />
          <path
             d="m 443.16383,207.46471 c 0,0 17.88088,3.33317 20.91196,0.14298 4.00507,-4.21532 23.77266,-4.67516 25.76824,-0.8103 0.40684,0.85595 2.06554,2.71117 1.49719,3.79607 -2.74157,5.23305 -16.26792,12.21058 -16.26792,12.21058 0,0 3.21032,-1.64927 7.06375,-4.35622 4.34864,-3.05482 13.50571,-2.85001 14.33765,1.52507 2.06154,8.72478 -13.64674,10.9696 -13.64674,10.9696 0,0 16.8791,-5.74294 18.84999,-2.41289 4.27913,7.23002 -15.42638,14.19719 -28.35637,16.27953 -8.52769,1.37335 -20.69668,18.77466 -20.69668,18.77466"
             fill="#e00000"
             stroke-linecap="round"
             id="path20" />
        </g>
        <path
           d="m 277.36152,131.46954 c 0.16587,0.2549 26.3457,-2.57637 46.02765,3.76099 19.68195,6.33736 21.78938,10.55185 31.95799,22.03849 10.16862,11.48663 12.8345,28.32117 12.78901,28.50841 -4.05807,16.70649 -22.12218,30.36373 -22.19301,31.97697 -1.4463,32.94981 -44.91981,25.20498 -67.03801,14.34679 -5.80476,-2.84964 -21.18374,-37.57856 -12.85055,-60.92303 5.93139,-16.61608 29.23841,-33.97522 29.62703,-34.19726"
           data-paper-data="{&quot;index&quot;:null}"
           fill="#ff0000"
           stroke-linecap="round"
           id="path24" />
        <path
           d="m 315.83131,185.30262 c 0,0 14.11074,-4.16606 28.66974,-1.34684 9.16226,1.7742 16.82431,7.94835 21.6402,12.37382 4.18202,3.84296 -13.54455,28.43172 -32.33065,42.2626 -22.34772,16.45305 -47.34364,24.72378 -48.52055,23.10004 -4.77867,-6.5929 -7.71994,-10.90766 -8.58252,-16.09981 -2.09453,-12.60776 4.934,-22.137 4.934,-22.137"
           data-paper-data="{&quot;index&quot;:null}"
           fill="#ff0000"
           stroke-linecap="round"
           id="path26" />
      </g>
      <g
         fill-rule="evenodd"
         stroke="#000000"
         stroke-width="2"
         stroke-linecap="butt"
         id="g34">
        <path
           d="m 83.60107,86.84224 c 21.89822,-16.45641 48.7166,-20.8343 65.15163,-23.8326 40.90614,-7.46268 56.61979,7.81344 56.61979,7.81344 -8.12275,31.15742 18.98908,59.85221 33.39809,86.79653 15.15601,28.34122 17.86841,54.15306 17.86841,54.15306 -62.72609,-34.86725 -124.54625,47.87167 -124.54625,47.87167 -20.35742,-65.34067 -60.37226,-13.73308 -60.37226,-13.73308 -5.7462,-69.49923 -42.55347,-49.2589 -52.80226,-37.63931 0,0 28.77418,-94.53923 64.68283,-121.42972 z"
           data-paper-data="{&quot;index&quot;:null}"
           fill="#ffd989"
           id="path30" />
        <path
           d="m 307.78875,227.23786 c 0,0 1.63349,15.47044 -3.8292,17.94068 -9.45755,4.27674 -16.29985,-6.42183 -16.29985,-6.42183 0,0 -18.12264,-69.42652 -33.74229,-99.6136 -8.7132,-12.78682 -22.0206,-28.6714 -32.30914,-34.64904 -1.28712,-0.74781 14.3967,22.39865 27.60557,58.203 10.90167,29.55038 10.4631,64.60051 10.4631,64.60051 l -10.16926,-19.12152 c 0,0 -6.93048,-28.53424 -13.40685,-44.98608 -0.13966,-0.3548 -0.0387,-0.74433 -0.1884,-1.11631 -7.4731,-18.57128 -27.35186,-57.91492 -27.35186,-57.91492 l -9.56025,-2.40265 c 0,0 -25.22056,19.37799 -45.52183,44.90376 -21.03257,26.51254 -19.53415,134.87821 -19.53415,134.87821 0,0 -8.61537,-52.37378 -6.78212,-101.04969 1.78079,-48.82299 63.5363,-90.89433 63.5363,-90.89433 0,0 -57.07379,12.66854 -77.14775,33.1896 C 93.47697,143.30467 69.53189,266.68031 69.53189,266.68031 71.04436,184.11983 89.90762,137.2002 102.81178,111.76157 115.58147,86.37965 187.33101,74.94132 187.33101,74.94132 176.49379,62.77599 121.42326,76.28839 91.64797,93.47203 62.00708,110.59872 9.92741,230.15206 9.92741,230.15206 c 0,0 34.50284,-123.27821 73.63409,-147.6411 49.60837,-31.00153 115.01977,-27.23021 115.01977,-27.23021 -3.9442,-16.27008 -21.55892,-11.85474 -21.55892,-11.85474 12.50052,-8.34207 28.32567,0.01768 38.41127,15.71723 5.04812,7.8581 41.867,34.82528 58.69584,72.57718 16.79357,37.67274 33.65923,95.5175 33.65923,95.5175 z"
           data-paper-data="{&quot;index&quot;:null}"
           fill="#e00000"
           id="path32" />
      </g>
      <g
         fill-rule="nonzero"
         stroke="#000000"
         stroke-width="2"
         id="g84">
        <path
           d="m 280.92546,262.1719 c -2.96109,3.51065 -165.62103,45.55369 -165.62103,45.55369 0,0 -64.27502,-34.94619 -84.46041,-49.51415 C 19.94758,250.34739 -0.46297,221.6719 -0.46297,221.6719 l 17.38456,-5.40721 5.21667,15.40443 18.36938,-9.87746 4.0747,17.55697 18.85874,-12.54565 3.54185,19.9964 15.82276,-12.84569 4.76868,19.6866 14.59576,-14.63031 6.61792,21.30354 13.37463,-12.05977 8.93045,17.9636 8.95322,-14.51259 12.12513,18.49009 9.45186,-15.5159 12.53902,16.63126 8.90315,-16.44845 11.75703,16.69942 5.84194,-16.55878 14.50037,14.15129 3.79655,-16.38063 13.7778,12.61531 2.11479,-16.43769 15.68244,12.11989 -1.15338,-17.14625 14.33507,13.018 0.0626,-17.05223 13.55001,12.33048 1.81878,-17.37759 9.03873,12.58843 c 0,0 -3.61201,10.4122 -7.26278,14.74053 z"
           fill="#ffd989"
           stroke-linecap="butt"
           id="path36" />
        <g
           id="g82">
          <path
             d="m 265.4586,356.6052 c 0,0 -57.36126,13.04661 -147.20924,-26.22594 C 24.59373,289.44237 -0.0917,222.77315 -0.0917,222.77315 c 0,0 85.13354,36.90093 156.64975,47.64733 59.88938,8.99928 131.53388,-22.20031 131.53388,-22.20031 z"
             fill="#e00000"
             stroke-linecap="butt"
             id="path38" />
          <path
             d="M 118.6291,330.48285 C 86.06349,316.24845 55.86045,295.52688 36.43274,275.67978 24.0685,263.04865 14.69634,250.44961 8.70224,240.20305 4.5862,233.16689 1.26864,224.80129 1.26864,224.80129 c 0,0 65.57485,55.05704 142.84462,76.82359 73.8609,20.80626 134.39825,-8.64068 134.39825,-8.64068 l -12.9579,63.64694 c 0,0 -57.07651,13.12429 -146.92449,-26.14826 z"
             fill="#ffd989"
             stroke-linecap="butt"
             id="path40" />
          <g
             fill="none"
             stroke-linecap="round"
             id="g80">
            <path
               d="m 254.20654,358.12618 6.98801,-57.51116"
               id="path42" />
            <path
               d="m 240.49213,358.77247 5.16645,-53.99271"
               id="path44" />
            <path
               d="m 225.78738,358.3364 5.39265,-50.99706"
               id="path46" />
            <path
               d="m 217.1751,308.47305 -4.91984,48.52866"
               id="path48" />
            <path
               d="m 203.26045,309.43745 -5.84665,45.5069"
               id="path50" />
            <path
               d="m 182.80599,351.93527 4.92732,-42.75848"
               id="path52" />
            <path
               d="m 167.3514,347.62555 6.78953,-40.13607"
               id="path54" />
            <path
               d="m 152.52844,343.39375 6.90693,-37.83621"
               id="path56" />
            <path
               d="m 138.56291,338.61019 8.29531,-35.62527"
               id="path58" />
            <path
               d="m 132.18469,298.3244 -9.87961,33.65874"
               data-paper-data="{&quot;index&quot;:null}"
               id="path60" />
            <path
               d="m 109.2024,326.0947 11.12118,-31.74277"
               data-paper-data="{&quot;index&quot;:null}"
               id="path62" />
            <path
               d="m 95.40632,318.87989 9.9998,-30.83242"
               data-paper-data="{&quot;index&quot;:null}"
               id="path64" />
            <path
               d="m 83.50602,311.93842 9.57698,-29.271"
               data-paper-data="{&quot;index&quot;:null}"
               id="path66" />
            <path
               d="M 80.31108,276.03661 69.57322,303.10227"
               data-paper-data="{&quot;index&quot;:null}"
               id="path68" />
            <path
               d="m 56.49856,293.44415 8.95082,-25.4295"
               data-paper-data="{&quot;index&quot;:null}"
               id="path70" />
            <path
               d="m 52.15433,260.0769 -8.7443,22.48689"
               data-paper-data="{&quot;index&quot;:null}"
               id="path72" />
            <path
               d="m 33.67143,272.57916 7.54808,-18.8999"
               data-paper-data="{&quot;index&quot;:null}"
               id="path74" />
            <path
               d="m 28.25705,245.43409 -5.73527,14.86014"
               data-paper-data="{&quot;index&quot;:null}"
               id="path76" />
            <path
               d="m 14.47313,248.84422 3.72943,-10.26334"
               data-paper-data="{&quot;index&quot;:null}"
               id="path78" />
          </g>
        </g>
      </g>
      <g
         fill-rule="evenodd"
         stroke="#000000"
         stroke-width="2"
         stroke-linecap="butt"
         id="g90">
        <path
           d="m 27.03952,97.84824 c 21.89822,-16.45641 48.7166,-20.83429 65.15163,-23.83259 40.90614,-7.46268 56.61979,7.81343 56.61979,7.81343 -8.12275,31.15742 18.98909,59.85222 33.3981,86.79653 15.156,28.34122 17.86841,54.15306 17.86841,54.15306 C 137.35136,187.91142 75.5312,270.65034 75.5312,270.65034 55.17378,205.30967 15.15895,256.91726 15.15895,256.91726 c -5.7462,-69.49923 -42.55347,-49.25889 -52.80226,-37.63931 0,0 28.77418,-94.53923 64.68283,-121.42972 z"
           data-paper-data="{&quot;index&quot;:null}"
           fill="#ffd989"
           id="path86" />
        <path
           d="m 251.22736,238.24386 c 0,0 1.63349,15.47044 -3.8292,17.94068 -9.45756,4.27674 -16.29985,-6.42184 -16.29985,-6.42184 0,0 -18.12264,-69.42652 -33.74229,-99.6136 -8.7132,-12.78682 -22.0206,-28.6714 -32.30914,-34.64904 -1.28711,-0.74781 14.3967,22.39865 27.60557,58.203 10.90167,29.55038 10.4631,64.60051 10.4631,64.60051 l -10.16926,-19.12152 c 0,0 -6.93048,-28.53424 -13.40685,-44.98608 -0.13967,-0.3548 -0.0387,-0.74433 -0.1884,-1.11631 -7.47311,-18.57128 -27.35186,-57.91492 -27.35186,-57.91492 l -9.56025,-2.40265 c 0,0 -25.22057,19.37799 -45.52184,44.90376 -21.03257,26.51254 -19.53414,134.8782 -19.53414,134.8782 0,0 -8.61537,-52.37378 -6.78212,-101.04968 1.78079,-48.82298 63.5363,-90.89432 63.5363,-90.89432 0,0 -57.07379,12.66854 -77.14775,33.18961 C 36.91558,154.31068 12.9705,277.68632 12.9705,277.68632 14.48297,195.12585 33.34623,148.20622 46.25039,122.76758 59.02008,97.38566 130.76962,85.94732 130.76962,85.94732 119.9324,73.78199 64.86187,87.2944 35.08658,104.47803 5.44569,121.60471 -46.63398,241.15806 -46.63398,241.15806 c 0,0 34.50283,-123.27822 73.63409,-147.6411 49.60837,-31.00152 115.01977,-27.2302 115.01977,-27.2302 -3.9442,-16.27009 -21.55893,-11.85475 -21.55893,-11.85475 12.50051,-8.34207 28.32568,0.01768 38.41127,15.71723 5.04812,7.8581 41.86699,34.82529 58.69584,72.57718 16.79357,37.67274 33.65923,95.5175 33.65923,95.5175 z"
           data-paper-data="{&quot;index&quot;:null}"
           fill="#e00000"
           id="path88" />
      </g>
      <g
         fill-rule="nonzero"
         stroke="#000000"
         stroke-width="2"
         id="g98">
        <path
           d="m 163.32773,332.25838 c 0,0 -3.26481,-29.92217 0.96386,-54.4438 3.068,-20.06748 10.17162,-40.4012 10.17162,-40.4012 0,0 -31.61637,-9.50345 -36.77185,-27.01062 -10.41155,-56.44038 6.2207,-80.73117 6.2207,-80.73117 0,0 4.76928,-15.27561 5.10345,-16.54826 1.85824,-7.07706 18.41463,-21.71727 18.41463,-21.71727 0,0 6.23794,-11.69707 9.76862,-16.7103 2.88889,-4.10194 9.87897,-11.18738 9.87897,-11.18738 l 83.75,14.75 c 0,0 -8.26955,12.60442 -0.73088,24.08055 7.02065,10.68755 29.74226,20.06478 33.38146,26.07833 4.59812,7.59811 8.34942,17.59112 8.34942,17.59112 0,0 -5.23581,42.95834 -4.77241,68.40196 0.41425,22.74472 6.38908,67.06429 8.64359,93.1647 1.03776,12.01409 -0.55168,20.69334 -0.55168,20.69334 0,0 15.4082,13.89173 20.22811,20.06482 3.48535,4.46384 9.00849,13.53758 9.00849,13.53758 l -70.27412,0.26058 -125.61636,0.37439 c 0,0 3.50339,-13.04197 6.25203,-18.55356 2.10677,-4.22452 8.58236,-11.6938 8.58236,-11.6938 z"
           fill="#e00000"
           stroke-linecap="butt"
           id="path92" />
        <path
           d="m 204.06032,154.70854 c 0,0 12.06073,-18.91804 15.97362,-26.52232 2.63846,-5.12758 5.22638,-14.67768 5.22638,-14.67768 0,0 8.44985,-11.61382 13.83148,-11.83541 5.90336,-0.24308 20.16851,10.43541 20.16851,10.43541 0,0 5.47045,12.42494 10.56031,18.46491 4.90316,5.81842 19.43969,17.1351 19.43969,17.1351 0,0 -12.14482,12.07293 -23.88261,13.0373 -15.56677,1.27896 -61.31738,-6.03731 -61.31738,-6.03731 z"
           fill="#ffd989"
           stroke-linecap="butt"
           id="path94" />
        <path
           d="m 255.06035,110.30857 c 0,0 3.4892,17.31765 4.41756,23.53768 1.05532,7.07064 0.38243,16.06232 0.38243,16.06232 0,0 -16.36799,-7.92195 -22.32072,-13.34555 -6.04582,-5.50841 -12.47928,-18.85445 -12.47928,-18.85445"
           fill="none"
           stroke-linecap="round"
           id="path96" />
      </g>
      <g
         fill-rule="nonzero"
         stroke="#000000"
         stroke-width="2"
         id="g120">
        <path
           d="m 316.07,304.42332 c 0,6.20539 0.45811,21.07347 -1.81219,33.81971 -0.22704,1.27466 -1.17785,5.91388 -2.63505,10.7597 -0.62645,2.08322 -1.31591,4.20462 -1.959,6.1133 -1.3104,3.88925 -2.42829,6.89527 -2.42829,6.89527 l -40.35206,-0.53113 c 0,0 -13.46404,-11.52252 -24.71928,-23.71659 -9.78751,-10.60391 -17.56342,-21.91068 -17.66274,-24.13272 -0.004,-0.0885 -4.73215,-14.26133 -2.02456,-15.56382 11.56673,-5.56416 49.58621,-6.24372 61.89317,-6.24372 15.18783,0 31.7,-3.52671 31.7,12.6 z"
           fill="#ffd989"
           stroke-linecap="butt"
           id="path100" />
        <path
           d="m 289.01658,276.83315 c 0.24469,27.01992 -20.97784,38.36327 -39.48467,38.36327 -9.38743,0 -24.15805,1.34004 -30.15623,-7.96868 -5.82692,-9.04293 -3.05623,-26.05021 -0.43385,-27.73289 7.02531,-4.5079 23.62184,7.30393 31.25676,7.30393 18.50682,0 38.61643,-32.22339 38.818,-9.96562 z"
           fill="#ffd989"
           stroke-linecap="butt"
           id="path102" />
        <path
           d="m 304.23017,309.22569 c -4.08283,-0.0539 -12.8642,-3.36211 -17.10198,-11.7997 -5.84314,-11.63395 -4.51649,-36.3249 1.83149,-36.3249 8.52396,0 20.9775,8.06774 29.64199,15.94887 2.46795,2.24482 3.15841,10.19566 2.47458,17.31189 -0.91554,9.52748 -6.73626,14.9974 -16.84608,14.86384 z"
           fill="#ffd989"
           stroke-linecap="butt"
           id="path104" />
        <path
           d="m 287.67672,246.9345 c 0.26963,29.77334 -21.38094,44.85007 -41.77367,44.85007 -8.88064,0 -26.71633,0.0689 -33.7541,-9.19633 -9.12315,-12.01066 -6.99824,-30.59663 -3.68782,-32.72082 7.74121,-4.96727 28.02898,8.04823 36.44192,8.04823 20.39273,0 42.55158,-35.50706 42.77368,-10.98115 z"
           fill="#ffd989"
           stroke-linecap="butt"
           id="path106" />
        <path
           d="m 304.69158,283.67886 c -4.49888,-0.0594 -14.17511,-3.70472 -18.84473,-13.00213 -6.43857,-12.81949 -4.97673,-40.02653 2.01813,-40.02653 9.39259,0 22.91518,8.88987 32.46261,17.57411 2.71944,2.47357 5.10871,6.27297 4.44456,17.67603 -0.87212,14.97376 -8.94052,17.9257 -20.08057,17.77852 z"
           fill="#ffd989"
           stroke-linecap="butt"
           id="path108" />
        <path
           d="m 286.07,221.19007 c 0.29501,29.82444 -24.48769,48.6 -46.8,48.6 -22.31231,0 -40.4,-8.41705 -40.4,-18.8 0,-1.23042 -3.7001,-23.09276 2.71604,-26.86204 8.4699,-4.9758 28.47911,8.06204 37.68397,8.06204 22.31231,0 46.55699,-35.568 46.8,-11 z"
           fill="#ffd989"
           stroke-linecap="butt"
           id="path110" />
        <path
           d="m 304.88133,256.99665 c -4.71488,-0.0595 -15.9133,-3.51074 -20.80711,-12.8241 -6.7477,-12.84149 -5.63488,-32.68253 1.69582,-32.68253 9.84354,0 25.9018,1.29208 35.90762,9.99123 2.85001,2.47782 6.72599,10.82606 5.19238,22.50877 -1.39237,10.60672 -10.31381,13.15406 -21.98871,13.00663 z"
           fill="#ffd989"
           stroke-linecap="butt"
           id="path112" />
        <path
           d="m 344.67021,195.99007 c 0,8.34632 -4.72749,29.10324 -9.72185,33.29316 -0.90614,0.76019 -4.82922,3.09187 -8.06496,3.95622 -4.29974,1.14857 -15.12454,-0.37491 -19.81919,-1.6694 -9.57923,-2.64135 -27.03554,-5.79091 -29.53844,-18.57559 -16.48417,-10.64848 -25.85556,-19.73942 -25.85556,-30.00439 0,-22.42276 19.72922,-42.85 45.3,-42.85 25.57079,0 47.7,33.42724 47.7,55.85 z"
           fill="#ffd989"
           stroke-linecap="butt"
           id="path114" />
        <path
           d="m 223.77018,141.58999 c 21.48388,0 58.5,7.85826 58.9,55.2 0.0418,4.95089 0.66284,10.8569 -0.97063,16.77375 -4.08796,14.80769 -18.08553,29.68335 -59.72937,29.82625 -11.77859,0.0404 -33.13339,-15.33396 -39.72374,-33.53622 -3.86309,-10.66968 -12.23112,-33.62334 2.96585,-49.75484 17.0256,-18.07259 32.35775,-18.50894 38.5579,-18.50894 z"
           fill="#ffd989"
           stroke-linecap="butt"
           id="path116" />
        <path
           d="m 285.67001,295.22337 c 0,0 3.49032,15.2843 3.83094,30.00459 0.48445,20.93638 -2.03094,36.1954 -2.03094,36.1954"
           fill="none"
           stroke-linecap="round"
           id="path118" />
      </g>
      <g
         stroke-width="2"
         id="g164">
        <g
           data-paper-data="{&quot;index&quot;:null}"
           fill="#e00000"
           fill-rule="evenodd"
           stroke="#000000"
           stroke-linecap="butt"
           id="g126">
          <path
             d="m 196.95188,46.67774 c -12.02078,8.54172 -26.79108,-11.30529 -30.9684,-18.06072 -4.17737,-6.75509 -2.68534,-15.72996 0.63964,-12.54209 3.32466,3.18783 10.95504,3.66596 24.78759,5.96557 13.83252,2.2996 15.58004,17.87365 5.54116,24.63725 z"
             id="path122" />
          <path
             d="m 198.30208,45.32107 c 0,0 -0.70345,-0.11695 -1.833,-0.56832 -1.12954,-0.45136 -2.68559,-1.23686 -4.11338,-2.79178 -1.42804,-1.55532 -2.49359,-3.84041 -3.51682,-6.38204 l -0.19174,-0.29547 -0.1491,-0.55195 c -0.1918,-0.29511 -0.38384,-0.59064 -0.61823,-0.62959 -0.19173,-0.29546 -0.85254,-0.6689 -1.27865,-1.00331 -1.12961,-0.45103 -2.49385,-0.94142 -3.6234,-1.39278 -2.49379,-0.94175 -5.26434,-1.66557 -7.52375,-2.56836 -1.12955,-0.45135 -2.25909,-0.90271 -3.34606,-1.61024 -1.12955,-0.45138 -1.98214,-1.11992 -2.83468,-1.78881 -0.85253,-0.66891 -1.47075,-1.29848 -2.08891,-1.9284 -0.61784,-0.62987 -1.00168,-1.22049 -1.38514,-1.81141 -0.53294,-1.14257 -0.91672,-1.73354 -0.91672,-1.73354 0,0 0.38379,0.59097 1.19374,1.51601 0.38346,0.59092 0.80989,0.92539 1.42778,1.55494 0.61816,0.62994 1.27896,1.00337 2.13155,1.67193 0.89519,0.41238 1.74771,1.08129 2.87726,1.53265 1.12961,0.45103 2.25915,0.9024 3.3887,1.35376 2.49379,0.94174 5.03027,1.62666 7.56639,2.31185 1.36424,0.49038 2.49379,0.94173 3.81513,1.68821 0.6608,0.37342 1.08691,0.70784 1.70508,1.33778 0.1918,0.29512 0.38385,0.59063 0.57557,0.88608 l 0.14909,0.55195 c 0.19179,0.29512 0.1918,0.29512 0.14915,0.55163 0.78853,2.50263 1.85434,4.7881 3.04776,6.30406 1.19374,1.51602 2.47243,2.51899 3.60199,2.97035 1.08691,0.70786 1.79035,0.8248 1.79035,0.8248 z"
             id="path124" />
        </g>
        <path
           d="m 277.57311,60.86186 c -4.55922,27.42452 -28.84851,42.40579 -55.74807,37.93383 -27.74458,-4.61242 -42.9568,-14.66826 -46.0793,-32.50693 -1.17502,-6.71281 2.24968,-16.21306 3.16375,-24.4895 1.79862,-16.28544 8.66105,-26.98408 14.22457,-33.95482 11.0679,-13.86737 25.39616,-12.7347 43.2973,-9.75871 26.89962,4.47196 45.70104,35.35157 41.1418,62.77613 z"
           fill="#e00000"
           fill-rule="nonzero"
           stroke="#000000"
           stroke-linecap="butt"
           id="path128" />
        <path
           d="m 349.20446,92.63087 c 0,0 -8.38119,13.64891 -10.99576,15.1063 -2.61457,1.45741 -8.28467,6.0379 -17.08014,6.42833 -14.78746,0.65638 -59.86572,-8.41984 -80.18558,-11.07969 -23.61822,-3.09158 -47.69467,-11.21546 -50.59722,-14.00081 -8.63115,-8.28263 -9.35616,-12.29387 -4.18052,-19.66359 6.51891,-9.34565 28.90623,-9.77782 28.90623,-9.77782"
           fill="#ffd989"
           fill-rule="nonzero"
           stroke="#000000"
           stroke-linecap="round"
           id="path130" />
        <path
           d="m 245.88442,15.03495 c 5.14205,0.76501 8.31739,7.95124 7.09227,16.05088 -1.22508,8.09969 -6.38665,14.04561 -11.5287,13.2806 -5.14205,-0.76501 -8.31739,-7.95123 -7.09228,-16.05088 1.22508,-8.0997 6.38666,-14.04561 11.52871,-13.2806 z"
           fill="#ffffff"
           fill-rule="nonzero"
           stroke="#000000"
           stroke-linecap="butt"
           id="path132" />
        <path
           d="m 236.64901,28.72055 c 0.19328,-1.27766 1.00743,-2.21555 1.81856,-2.09488 0.81111,0.12065 1.312,1.25424 1.11873,2.53189 -0.19323,1.27763 -1.00743,2.21557 -1.81856,2.09489 -0.81111,-0.12069 -1.31199,-1.25427 -1.11873,-2.53191 z"
           fill="#000000"
           fill-rule="nonzero"
           stroke="#000000"
           stroke-linecap="butt"
           id="path134" />
        <path
           d="m 231.96034,27.99226 c -1.22508,8.0997 -6.38667,14.0456 -11.5287,13.2806 -5.14205,-0.76501 -8.31739,-7.95123 -7.09228,-16.05087 1.22508,-8.0997 6.38667,-14.0456 11.52871,-13.28061 5.14205,0.76501 8.31739,7.95124 7.09228,16.05088 z"
           data-paper-data="{&quot;index&quot;:null}"
           fill="#ffffff"
           fill-rule="nonzero"
           stroke="#000000"
           stroke-linecap="butt"
           id="path136" />
        <path
           d="m 228.5483,25.05537 c 0.81112,0.12069 1.31199,1.25427 1.11873,2.53191 -0.19327,1.27764 -1.00743,2.21554 -1.81856,2.09487 -0.81112,-0.12069 -1.31198,-1.25427 -1.11872,-2.53191 0.19327,-1.27763 1.00743,-2.21555 1.81856,-2.09488 z"
           data-paper-data="{&quot;index&quot;:null}"
           fill="#000000"
           fill-rule="nonzero"
           stroke="#000000"
           stroke-linecap="butt"
           id="path138" />
        <path
           d="m 232.76048,33.94765 c 0,0 38.1073,1.62112 55.61707,4.7126 12.42932,2.1945 57.19496,10.82245 68.99874,14.41904 6.1188,1.86439 9.73707,15.83349 1.68671,28.59865 -5.69128,9.02442 -9.86287,12.33601 -17.25466,13.33291 -3.06398,0.41322 -11.32235,1.82207 -11.32235,1.82207 l -6.14856,-8.83816 -12.08835,4.70393 -6.32703,-11.36354 -16.10289,8.31505 -10.53281,-11.55705 -12.93551,5.50861 -11.21315,-9.10424 -9.81577,5.09634 -9.04358,-8.51213 -11.42707,4.78304 -7.04248,-8.57025 -9.15159,4.94542 -3.24332,-11.6981"
           fill="#e00000"
           fill-rule="nonzero"
           stroke="#000000"
           stroke-linecap="round"
           id="path140" />
        <path
           d="m 343.50019,59.31327 c -1.76878,-1.5274 -4.2821,-1.6204 -3.82003,-2.06916 0.46208,-0.44878 3.36311,0.0054 5.13189,1.53281 1.76878,1.52738 1.73554,3.54958 1.27347,3.99833 -0.46209,0.44878 -0.81653,-1.9346 -2.58531,-3.46201 z"
           data-paper-data="{&quot;index&quot;:null}"
           fill="#000000"
           fill-rule="nonzero"
           stroke="#000000"
           stroke-linecap="butt"
           id="path142" />
        <path
           d="m 353.16092,60.72508 c -2.16784,0.87294 -3.27435,3.01348 -3.56637,2.43932 -0.292,-0.57413 0.33079,-2.49829 2.49863,-3.37123 2.16784,-0.87295 5.05978,-0.36412 5.3518,0.21003 0.29202,0.57412 -2.11621,-0.15106 -4.28405,0.7219 z"
           data-paper-data="{&quot;index&quot;:null}"
           fill="#000000"
           fill-rule="nonzero"
           stroke="#000000"
           stroke-linecap="butt"
           id="path144" />
        <path
           d="m 226.24835,10.60457 c 4.21051,0.63744 8.21726,1.94308 9.09601,2.37002 2.32982,1.13195 0.48605,8.43137 -1.37572,10.75183 -1.30568,1.62737 -19.98944,-9.65646 -19.92431,-10.99206 -0.44014,-0.94381 4.22271,-3.06754 4.40066,-3.06362 0,0 3.51898,0.28521 7.80336,0.93383 z"
           data-paper-data="{&quot;index&quot;:null}"
           fill="#e00000"
           fill-rule="nonzero"
           stroke="none"
           stroke-linecap="butt"
           id="path146" />
        <path
           d="m 217.12127,15.72908 15.06196,8.49538"
           data-paper-data="{&quot;index&quot;:null}"
           fill="none"
           fill-rule="nonzero"
           stroke="#000000"
           stroke-linecap="round"
           id="path148" />
        <path
           d="m 252.65504,21.41225 c -0.1632,0.06089 -0.33279,0.10152 -0.51039,0.11677 -2.03531,0.17484 -14.6055,3.25216 -16.46082,2.60828 -2.43808,-0.84614 -6.53876,-8.12929 -4.92783,-10.57353 1.12976,-1.71418 9.33108,-1.82698 14.85018,-1.66666 2.15671,0.06264 3.85494,0.46106 4.61045,0.52785 0.48783,0.04312 1.35966,-0.01286 2.19342,0.35022 1.33772,0.58254 2.65443,1.7809 2.70842,2.71806 0.75077,1.21108 1.0159,2.08583 0.36736,3.51953 -0.57505,1.27122 -1.644,2.12026 -2.83081,2.39948 z"
           data-paper-data="{&quot;index&quot;:null}"
           fill="#e00000"
           fill-rule="nonzero"
           stroke="none"
           stroke-linecap="butt"
           id="path150" />
        <path
           d="m 252.222,21.40566 -16.84573,2.71195"
           data-paper-data="{&quot;index&quot;:null}"
           fill="none"
           fill-rule="nonzero"
           stroke="#000000"
           stroke-linecap="round"
           id="path152" />
        <path
           d="m 204.06989,10.93151 c 0,0 -5.74101,-24.02322 -13.22228,-28.81115 -5.73964,-7.45286 -30.88447,-15.72165 -30.88447,-15.72165 0,0 16.04104,-6.0487 26.02352,-3.19878 3.63097,1.03662 15.38414,3.48694 24.97566,8.89032 13.49097,7.60016 24.98452,25.98444 24.98452,25.98444 0,0 -9.43893,6.4057 -14.87324,8.59751 -5.17903,2.08883 -17.00368,4.25931 -17.00368,4.25931 z"
           fill="#1f1f1f"
           fill-rule="nonzero"
           stroke="#000000"
           stroke-linecap="round"
           id="path154" />
        <path
           d="m 186.37187,19.47707 c 0,0 -8.06443,-23.16033 -15.99203,-27.05014 -6.45001,-6.73154 -32.33337,-12.04851 -32.33337,-12.04851 0,0 15.40986,-7.83516 25.6434,-6.15343 3.7223,0.61171 15.68295,1.69437 25.77513,5.95258 14.1952,5.98938 26.55957,27.19437 26.55957,27.19437 0,0 -7.39107,4.99452 -13.03067,7.35145 -5.40176,2.25753 -16.622,4.75367 -16.622,4.75367 z"
           fill="#1f1f1f"
           fill-rule="nonzero"
           stroke="#000000"
           stroke-linecap="round"
           id="path156" />
        <g
           data-paper-data="{&quot;index&quot;:null}"
           fill="#e00000"
           fill-rule="evenodd"
           stroke="#000000"
           stroke-linecap="butt"
           id="g162">
          <path
             d="m 185.11717,47.04366 c -12.02078,8.54172 -26.79108,-11.30529 -30.9684,-18.06072 -4.17737,-6.75509 -2.68534,-15.72995 0.63964,-12.54208 3.32466,3.18783 10.95505,3.66596 24.78759,5.96556 13.83252,2.2996 15.58003,17.87366 5.54116,24.63725 z"
             id="path158" />
          <path
             d="m 186.46737,45.687 c 0,0 -0.70346,-0.11696 -1.83301,-0.56832 -1.12954,-0.45136 -2.68559,-1.23685 -4.11337,-2.79177 -1.42804,-1.55531 -2.4936,-3.84041 -3.51682,-6.38204 l -0.19174,-0.29545 -0.14909,-0.55195 c -0.1918,-0.29512 -0.38384,-0.59064 -0.61822,-0.6296 -0.19173,-0.29546 -0.85254,-0.6689 -1.27864,-1.00332 -1.12961,-0.45103 -2.49385,-0.94141 -3.62339,-1.39278 -2.49379,-0.94176 -5.26435,-1.66557 -7.52376,-2.56836 -1.12955,-0.45135 -2.2591,-0.90272 -3.34607,-1.61024 -1.12955,-0.45138 -1.98215,-1.11992 -2.83467,-1.78881 -0.85253,-0.66891 -1.47075,-1.29848 -2.0889,-1.92841 -0.61784,-0.62987 -1.00169,-1.2205 -1.38515,-1.81141 -0.53294,-1.14257 -0.91671,-1.73354 -0.91671,-1.73354 0,0 0.38379,0.59098 1.19374,1.51602 0.38346,0.59091 0.80988,0.92539 1.42778,1.55493 0.61816,0.62994 1.27896,1.00337 2.13155,1.67193 0.89519,0.41238 1.74771,1.0813 2.87725,1.53265 1.12961,0.45103 2.25915,0.9024 3.38869,1.35376 2.49379,0.94174 5.03028,1.62665 7.56639,2.31184 1.36424,0.49038 2.4938,0.94173 3.81513,1.68821 0.6608,0.37342 1.08691,0.70785 1.70508,1.33778 0.1918,0.29512 0.38385,0.59063 0.57557,0.88608 l 0.1491,0.55195 c 0.19179,0.29512 0.19179,0.29512 0.14914,0.55162 0.78853,2.50263 1.85435,4.7881 3.04777,6.30407 1.19374,1.51602 2.47243,2.51899 3.60198,2.97035 1.08692,0.70785 1.79036,0.8248 1.79036,0.8248 z"
             id="path160" />
        </g>
      </g>
      <g
         fill="#000000"
         fill-rule="nonzero"
         stroke="none"
         stroke-width="0.5"
         stroke-linecap="butt"
         id="g180">
        <path
           d="m 212.45994,161.33623 c 0.19869,-0.11284 0.46285,-0.025 0.69308,-0.0412 0,0 0.2852,0 0.32752,0.26405 0.47251,0.16008 0.91732,0.4008 1.3475,0.74305 0.38294,0.30466 0.57289,0.27285 0.87068,0.74788 0.10453,0.16674 0.17658,0.36474 0.18255,0.56145 0.015,0.49341 -0.33687,1.41713 -0.55747,1.87037 -0.11601,0.23836 -0.18746,0.52791 -0.39868,0.68809 -0.0885,0.0671 -0.74271,0.0476 -0.92021,0.0454 -0.80799,0.27839 -1.44921,0.96917 -2.36924,0.79857 -0.73771,-0.13679 -0.65275,-0.51358 -0.95909,-1.05872 -0.12167,-0.21652 -0.29608,-0.40884 -0.37305,-0.64497 -0.17818,-0.54657 0.13846,-1.21722 0.46264,-1.63074 0.15295,-0.19511 0.54167,-0.48704 0.66107,-0.68069 0.11737,-0.19035 0.53771,-0.87636 0.65319,-1.02774 -0.12766,-0.007 0.21798,-0.65321 0.37953,-0.63482 z"
           id="path166" />
        <path
           d="m 210.31846,180.26004 c -0.12932,-0.28625 0.15692,-0.42937 0.15692,-0.42937 l 0.17972,-0.0708 c 0.12472,-0.11277 0.21822,-0.27538 0.37414,-0.33832 0.16297,-0.0658 0.35094,-0.0206 0.52662,-0.0253 0.15321,-0.004 0.80268,-0.002 0.91605,0.0265 0.51551,0.12751 0.74426,0.32858 1.20774,0.53126 0.1517,0.0663 0.33837,0.0657 0.46651,0.17058 0.45143,0.36936 0.69799,0.94206 1.00706,1.40633 0.0761,0.11433 0.22787,0.17228 0.28581,0.29681 0.101,0.21708 0.1737,0.45691 0.17629,0.69633 0.006,0.59033 -0.19292,0.65897 -0.44424,1.09869 -0.32324,0.56555 -0.60772,0.90024 -1.09213,1.33827 -0.48712,0.0187 -1.0657,-0.039 -1.55075,0.0228 -0.43999,0.0561 -1.01495,0.31144 -1.45572,0.0353 -0.21576,-0.13519 -0.36812,-0.35183 -0.55048,-0.52952 -0.29821,-0.29056 -0.7643,-0.65643 -0.88199,-1.0713 -0.20526,-0.72359 0.20537,-1.50831 0.39852,-2.18515 0.0532,-0.18652 0.1663,-0.74698 0.27993,-0.97308 z"
           id="path168" />
        <path
           d="m 235.64032,188.3059 c 0.15591,0.19205 0.16934,0.46869 0.20333,0.7137 0.0328,0.23648 0.32479,2.02007 -0.31788,2.76998 -0.92085,1.07453 -2.94297,1.14815 -3.45739,1.02298 -0.22637,-0.0551 -0.97817,-0.33931 -1.29864,-0.85643 -0.32047,-0.51712 -0.15133,-1.01209 -0.10297,-1.40526 0.0872,-0.70863 0.0844,-1.42367 0.43744,-2.07934 0.12322,-0.22883 0.68425,-0.77257 0.9067,-0.90669 0.0662,-0.0399 0.85616,-0.44952 1.65553,-0.30388 0.91632,0.16694 1.85889,0.9033 1.97387,1.04494 z"
           id="path170" />
        <path
           d="m 227.19962,169.93022 c -0.14799,0.2158 -0.29198,0.55219 -0.55362,0.55656 -0.22895,0.004 -0.31505,-0.33899 -0.42424,-0.54025 -0.0672,-0.12389 -0.0552,-0.27668 -0.0927,-0.41254 -0.10236,-0.37094 -0.26616,-0.70116 -0.45625,-1.03288 0,0 -0.12108,-0.21189 0.0256,-0.37644 -0.0374,-0.41303 0.0324,-1.01215 0.0322,-1.31835 -3.3e-4,-0.43087 -0.0793,-0.8582 -0.13143,-1.2859 -0.0785,-0.64432 0.0279,-1.21512 -0.13223,-1.85549 0.005,-0.26392 0.17467,-0.64272 -0.0439,-0.79069 -0.0336,-0.0228 -0.0658,0.0497 -0.0893,0.0828 -0.0845,0.11878 -0.13006,0.26681 -0.23288,0.37014 -0.10764,0.10817 -0.27551,0.14205 -0.38378,0.24959 -0.21692,0.21549 -0.22186,0.57012 -0.34654,0.8493 -0.15876,0.35549 -0.38451,0.68037 -0.52385,1.04391 -0.1362,0.35536 -0.0694,0.75811 -0.11673,1.13573 -0.0174,0.13921 -0.1092,0.26104 -0.13309,0.39929 -0.0522,0.30187 0.0391,0.61496 0.002,0.91903 -0.0223,0.18156 -0.10657,0.3514 -0.13309,0.53239 -0.0303,0.20674 -0.0332,0.39872 -0.038,0.58828 0.0471,0.0207 0.0834,0.0459 0.11123,0.0737 0.0332,-0.0617 0.0664,-0.12332 0.0975,-0.18591 l -0.0351,0.0157 c 0,0 -1e-5,-0.26962 0.24269,-0.32346 -0.504,0.66858 -0.47937,1.48645 -0.35559,2.31218 3.7e-4,0.0249 5.9e-4,0.0496 5.9e-4,0.0743 h -1e-5 v 0.13309 c 0,0 0,0.0516 -0.0203,0.11424 -1.9e-4,0.24588 -0.002,0.65313 -0.005,0.6711 -0.0223,0.13851 -0.1092,0.26104 -0.1331,0.39929 -0.0902,0.52167 0.004,1.14384 0.004,1.67697 -0.007,0.56665 0.30117,0.9955 0.39499,1.54385 0.14336,0.83789 0.18,1.79031 0.62009,2.5403 0.17531,0.29875 0.6182,0.65387 0.92792,0.8077 0.14478,0.0719 0.32802,0.0676 0.45507,0.16757 0.12258,0.0964 0.13005,0.2996 0.2559,0.39173 0.22494,0.16469 0.64698,-0.005 0.86733,0.0977 0.1755,0.0815 0.31226,0.23924 0.4219,0.39867 0.066,0.096 0.0126,0.24792 0.0853,0.33894 0.1259,0.1576 0.40224,0.0391 0.60395,0.0381 0.6489,0.16222 1.30359,0.053 1.93726,0.28404 0.46439,0.16929 0.55157,0.38155 1.06264,0.37959 0.11189,-4.3e-4 0.20911,-0.0798 0.31474,-0.11666 0.0401,-0.014 0.0807,-0.0267 0.12166,-0.0384 9.5e-4,-0.0831 0.0356,-0.17755 0.15253,-0.25554 0.27686,-0.18457 0.46143,0.0923 0.46143,0.0923 l -0.0174,0.0129 c 0.0624,-0.019 0.12395,-0.0405 0.18409,-0.066 0.30109,-0.12794 0.51379,-0.42454 0.82036,-0.53873 0.23777,-0.0886 0.49399,-0.12043 0.74554,-0.15358 0.2328,-0.0307 0.48266,0.10203 0.70403,0.0237 0.12768,-0.0452 0.20786,-0.16704 0.27084,-0.29848 0.2261,-0.0962 0.38085,-0.25653 0.51615,-0.45672 0.0838,0.009 0.16758,0.0209 0.23827,-0.0174 0.0716,-0.0389 0.16585,-0.1375 0.26678,-0.26773 0.25165,-0.1413 0.57474,-0.31118 0.75035,-0.48467 0.67461,-0.66639 0.58261,-1.80861 0.63509,-2.6447 0.0255,-0.40649 0.17916,-0.86788 0.13421,-1.27978 -0.002,-0.0208 -0.005,-0.0416 -0.007,-0.0625 -7.2e-4,-0.0932 -0.0106,-0.18539 -0.0324,-0.2738 -0.004,-0.0364 -0.009,-0.0729 -0.0129,-0.1095 -0.006,0.003 -0.0115,0.007 -0.0173,0.0104 -0.006,-0.0161 -0.0122,-0.032 -0.0191,-0.0477 -0.0493,-0.11327 0.0627,-0.35351 0.0288,-0.48918 -0.0255,-0.10188 -0.0738,-0.20543 -0.10682,-0.31406 0.14048,-0.2949 0.0777,-0.60407 0.0777,-0.9425 0,-1.00024 -0.0719,-1.89093 -0.38603,-2.8351 -0.0816,-0.32649 -0.21893,-0.6396 -0.27516,-0.97141 -0.0222,-0.13123 0.0215,-0.26793 0,-0.39928 -0.16099,-0.98421 -0.63176,-1.9437 -0.79858,-2.92813 -0.0916,-0.54081 -0.0729,-1.24532 -0.35389,-1.74173 -0.11352,-0.20053 -0.79542,-0.52797 -0.79859,-0.53238 -0.0373,-0.052 -0.0544,-0.47122 -0.0495,-0.77934 -0.33207,-0.106 -0.64429,0.37349 -0.92056,0.59553 -0.18844,0.15146 -0.46147,0.25605 -0.60651,0.46962 -0.30994,0.45638 -0.26254,1.0538 -0.33897,1.57636 -0.0474,0.32376 -0.21518,0.62141 -0.268,0.94432 -0.0458,0.27971 -0.0548,0.56866 -0.14207,0.83831 -0.19878,0.78006 -0.16797,1.60741 -0.39583,2.38293 -0.0285,0.0969 -0.0502,0.20409 -0.083,0.30402 0.0212,0.10309 0.0286,0.21251 0.0349,0.30917 0.0193,0.29764 -0.3558,0.94701 -0.54003,1.18096 -0.12939,0.16431 -0.22425,0.42331 -0.43079,0.45611 -0.22942,0.0364 -0.46374,-0.13002 -0.63516,-0.28681 -0.30623,-0.28009 -0.16717,-0.81967 -0.38131,-1.14468 -0.0795,-0.12073 -0.24505,-0.18292 -0.29385,-0.319 -0.0443,-0.12353 -0.0356,-0.25749 -0.0286,-0.3911 -0.039,-0.048 -0.076,-0.0974 -0.11148,-0.14706 -0.0815,-0.11421 -0.0609,-0.27899 -0.13309,-0.39929 -0.0646,-0.1076 -0.20447,-0.15694 -0.2662,-0.26619 -0.33184,-0.58739 -0.18279,-1.39139 -0.18279,-2.03829 0,-0.2341 0.0866,-0.4795 0.0143,-0.70216 -0.0361,-0.11125 -0.14362,-0.18522 -0.20505,-0.28476 -0.17595,-0.28508 -0.11889,-0.40355 -0.17289,-0.10877 -0.31769,0.29938 -0.64789,0.97486 -0.70542,1.41517 -0.023,0.17597 0.0257,0.35681 0,0.5324 -0.0461,0.31541 -0.22536,0.60266 -0.26438,0.91903 -0.0207,0.16795 0.0314,0.62833 -0.0225,0.92362 -0.0334,0.32932 -0.0731,0.84462 -0.23632,1.08256 z m 1.16309,-13.81167 c 0.35671,-0.1077 0.77589,0.0462 1.1088,0.12875 0.80546,0.19969 1.57446,0.47603 2.06571,1.21264 0.2073,0.31085 0.29571,0.85861 0.41097,1.21838 0.30714,0.40455 0.69788,1.01491 1.28966,1.0198 0.53404,0.004 1.02491,-0.7408 1.41538,-1.00222 0.31284,-0.20945 0.6425,-0.39464 0.98004,-0.56136 0.28372,-0.14013 0.64017,-0.0981 0.91393,-0.25683 0.17402,-0.1009 0.25272,-0.33434 0.43602,-0.4172 0.12473,-0.0564 1.18861,-0.005 1.2343,9e-5 0.49803,0.0523 0.99412,0.12654 1.39264,0.4732 0.12108,0.10531 0.15903,0.27936 0.22446,0.4259 0.26723,0.59851 0.40114,1.15154 0.40358,1.80402 -0.006,0.60707 -0.21988,1.02517 -0.26733,1.62461 -0.044,0.5564 0.001,1.14385 0.001,1.70281 0,0.17746 0.003,0.35495 0,0.53239 -0.003,0.16185 -0.11123,0.43004 0.0414,0.48385 0.0558,0.0197 0.0901,-0.0769 0.13687,-0.11309 0.26006,-0.20123 0.55772,-0.35203 0.81062,-0.56218 0.17962,-0.14926 0.30611,-0.36049 0.49984,-0.4909 0.27134,-0.18266 0.64954,-0.12751 0.94266,-0.27271 0.27576,-0.13659 0.43876,-0.47115 0.733,-0.5613 0.96665,-0.29615 1.64435,0.68478 2.001,1.389 0.15112,0.46147 0.53042,0.78277 0.67654,1.22878 0.0515,0.15709 0.0117,0.33043 0.0143,0.49572 0.009,0.61463 -0.0404,1.17182 -0.30003,1.74335 -0.50178,1.10443 -1.37555,1.99383 -1.88004,3.10661 -0.19254,0.42469 -0.32626,1.02367 0.0689,1.42041 0.0693,0.0696 0.19239,0.0407 0.2865,0.0688 0.29771,0.0888 0.62396,0.0456 0.92287,0.1303 0.1539,0.0436 0.26621,0.17747 0.3993,0.2662 0.33387,-0.005 0.6569,0.14288 0.96258,0.27724 0.16026,0.0704 0.36388,0.0677 0.48997,0.18913 0.16075,0.15483 0.1871,0.4085 0.31811,0.5892 0.10647,0.14685 0.27064,0.24347 0.38668,0.38289 0.0954,0.11463 0.13869,0.2695 0.24416,0.37497 0.24498,0.24498 0.61039,0.25042 0.73762,0.64033 0.082,0.25136 0.0203,0.52847 0.0253,0.79282 0.0104,0.54284 0.0788,1.10523 -0.16693,1.61026 -0.09,0.18491 -0.64858,0.93941 -0.73573,1.0272 -0.11402,0.11487 -0.28576,0.15903 -0.40348,0.2701 -0.33001,0.31137 -0.62834,0.6986 -1.04996,0.86623 -0.6186,0.24595 -1.2973,0.20815 -1.91624,0.41446 -0.6268,0.006 -1.33926,-0.10954 -1.9343,0.11672 -0.75702,0.28786 -1.31858,0.83655 -1.52187,1.62773 -0.16428,0.63935 0.1852,1.38607 0.2708,1.9998 0.006,0.0401 0.004,1.04765 0.004,1.11808 0,0.82232 0.0418,1.59656 -0.16154,2.39726 -0.30025,0.44784 -0.31524,0.607 -0.83517,0.83517 -0.49013,0.21508 -0.80908,0.16035 -1.33248,0.16154 -1.19257,0.003 -2.17687,-0.0783 -3.14615,-0.87994 -0.26149,-0.21628 -0.51932,-0.44677 -0.7174,-0.7223 -0.11131,-0.15483 -0.12849,-0.36821 -0.25173,-0.51374 -0.1269,-0.14986 -0.31864,-0.22959 -0.47657,-0.34631 -0.27631,-0.2042 -0.49558,-0.52814 -0.82846,-0.61321 -0.76063,-0.19438 -1.27538,0.506 -1.82217,0.87053 -0.55523,0.53776 -0.60559,1.30657 -0.84566,2.02403 -0.3991,1.19275 -1.11372,2.45342 -2.19213,3.16055 -0.80137,0.52547 -5.58553,0.57853 -7.60574,0.17514 -1.78538,-0.35651 -3.19888,-1.24836 -3.34526,-1.3597 -0.15604,-0.11869 -0.23043,-0.31731 -0.34108,-0.47915 -0.41373,-0.60517 -0.45385,-1.05518 -0.45517,-1.78173 -6.8e-4,-0.37257 -0.0584,-0.75043 0.004,-1.11769 0.10351,-0.60691 0.38973,-1.221 0.66496,-1.76331 0.0889,-0.17511 0.22627,-0.33175 0.27139,-0.52286 0.1096,-0.4643 -0.0171,-1.12245 -0.13207,-1.5731 -0.17824,-0.72485 -0.55617,-1.27198 -0.90184,-1.9194 -0.19297,-0.36145 -0.39921,-0.87091 -0.80265,-1.06608 -0.78487,-0.37971 -1.66792,-0.23573 -2.36415,-0.89762 -0.74066,-0.70414 -0.86482,-1.76549 -0.86587,-2.71935 -6e-4,-0.54244 -0.007,-1.1475 0.0886,-1.68145 0.10068,-0.55998 0.35174,-1.15525 0.53203,-1.69343 0.53122,-1.54971 1.53995,-3.03395 2.82859,-4.06967 0.46246,-0.3717 0.88696,-0.73173 1.30022,-1.16922 0.17606,-0.18639 0.51639,-0.54659 0.58652,-0.79183 0.13734,-0.48025 -0.21797,-1.00827 -0.27578,-1.46768 -0.0989,-0.78605 0.0236,-1.67502 0.16253,-2.4426 0.0964,-0.23645 0.15179,-0.49414 0.28923,-0.70935 0.18325,-0.28695 1.94554,-1.92111 4.28364,-3.22487 2.60007,-1.44985 5.80196,-2.56984 6.01307,-2.63358 z"
           id="path172" />
        <path
           d="m 247.08381,181.64759 c 0.42264,0.53054 0.65651,1.19726 0.85693,1.83598 0.0525,0.16742 0.14783,0.32907 0.15017,0.50451 0.002,0.15765 -0.11229,0.29694 -0.13739,0.45259 -0.0212,0.1314 0.0243,0.26843 0,0.39929 -0.10242,0.55248 -0.48266,1.05699 -0.91607,1.40189 -0.25284,0.20121 -0.5568,0.33869 -0.86335,0.44088 -0.60877,0.38737 -1.0974,0.38715 -1.7733,0.12723 -0.2405,-0.0925 -0.50587,-0.14634 -0.71209,-0.30085 -0.20839,-0.15613 -0.51563,-0.82843 -0.62034,-1.04125 -0.34335,-0.69786 -0.50404,-1.68354 -0.12886,-2.43536 0.0984,-0.19723 0.30367,-0.31958 0.45737,-0.47758 0.19937,-0.20494 0.6458,-1.2538 1.34375,-1.45051 0.95134,-0.26813 2.19873,0.36183 2.34318,0.54317 z"
           id="path174" />
        <path
           d="m 234.46651,152.09071 c -0.0962,-0.0315 2.82084,1.74952 2.43541,3.22485 -0.15539,0.5948 -0.40375,0.73305 -0.81439,1.13827 -0.33688,0.11543 -0.70049,0.13024 -1.05331,0.17849 -0.47405,0.0648 -0.80665,0.40501 -1.32762,0.26159 -1.16646,-0.3211 -2.04387,-2.06036 -1.40447,-3.16071 0.0759,-0.13055 0.20835,-0.21864 0.31396,-0.32655 0.35034,-0.35793 0.7147,-0.83957 1.20362,-1.01486 0.11565,-0.0415 0.25759,0.0641 0.36838,0.0111 0.12575,-0.0603 0.18845,-0.20432 0.27841,-0.31215 z"
           id="path176" />
        <path
           d="m 235.59758,172.61204 c 0.0487,0.29349 -0.0123,0.44803 -0.0632,0.72663 -0.0464,0.25414 7.2e-4,0.52305 -0.0683,0.77202 -0.072,0.25982 -0.28643,0.46075 -0.38241,0.71269 -0.13706,0.35978 -0.2493,0.74864 -0.37171,1.11545 -0.25475,0.59441 -0.48562,1.3384 -0.92573,1.83257 -0.5862,0.65822 -1.70314,1.07402 -2.51846,1.27677 -0.36807,0.0915 -0.75281,0.13272 -1.13042,0.13333 -0.17704,2.9e-4 -0.36637,-0.0786 -0.53096,-0.0133 -0.13875,0.055 -0.22977,0.2049 -0.37256,0.24837 -0.4462,0.13583 -0.95684,-0.0407 -1.33121,-0.26069 -0.4414,-0.12957 -0.88401,-0.35885 -1.21879,-0.6915 -0.0895,-0.0889 -0.11303,-0.22902 -0.19738,-0.32276 -0.10886,-0.12097 -0.2717,-0.18697 -0.37469,-0.31298 -0.25546,-0.3126 -0.34524,-0.65257 -0.48621,-1.01866 -0.31905,-0.82858 -0.58374,-1.65629 -0.7603,-2.53619 -0.0783,-0.39029 -0.21861,-0.81249 -0.25265,-1.20886 -0.0191,-0.222 -0.0165,-0.45524 -0.10349,-0.6604 0,0 -0.092,-0.22998 0.0938,-0.36126 -0.0769,-0.70341 0.19448,-1.37702 0.19448,-2.11356 v -0.31046 c 0,-0.17147 0.139,-0.31046 0.31047,-0.31046 0.1526,0 0.2795,0.11011 0.30557,0.25521 l 0.061,0.30482 -0.002,4.3e-4 c 0.001,0.003 0.002,0.005 0.004,0.008 0.003,0.007 0.11842,0.83986 0.12285,0.86204 0.10904,0.54567 0.215,1.0691 0.31625,1.612 l -0.028,0.0565 0.022,0.004 -0.009,0.046 0.22788,0.0923 c 0.21783,0.0438 0.5636,0.11918 0.77844,0.0141 0.1176,-0.0575 0.18659,-0.19243 0.30591,-0.24629 0.21241,-0.0959 0.34328,-0.10613 0.49014,-0.0855 0.009,-0.21983 0.0961,-0.3958 0.21663,-0.72735 0.0854,-0.23478 0.11874,-0.50641 0.28439,-0.69341 0.13139,-0.14833 0.25705,-0.41789 0.45253,-0.38548 0.24776,0.0411 0.37632,0.33958 0.51865,0.5465 0.19842,0.28845 0.27855,0.82932 0.33055,1.17042 0.005,0.0353 0.016,0.0722 0.0288,0.10974 0.13705,0.0671 0.16476,0.23334 0.16476,0.23334 0.0482,0.42508 0.19872,0.41726 0.55609,0.6669 0.14526,0.10147 0.2503,0.26765 0.41561,0.33146 0.24061,0.0929 0.64777,-0.18535 0.86893,-0.25143 0.52471,-0.15678 1.02473,-0.39466 1.40339,-0.79625 -0.11802,-0.12557 -0.0571,-0.30829 -0.0571,-0.30829 0.15448,-0.46293 0.33226,-0.91656 0.49975,-1.37465 0.0788,-0.21561 0.0735,-0.46143 0.18021,-0.6647 0.1011,-0.19261 0.16689,-0.49176 0.38107,-0.52979 0.20039,-0.0356 0.33929,0.23021 0.48043,0.37685 0.20772,0.21581 0.4205,0.72489 0.54573,0.9596 0.0288,0.0539 0.0581,0.10699 0.0875,0.15953 0.22939,0.0839 0.31673,0.40453 0.35983,0.70446 0.0482,0.12429 0.0869,0.25415 0.11079,0.39373 0.0253,0.14767 0.10393,0.31978 0.0668,0.45802 0,1e-5 1e-5,3e-5 1e-5,5e-5 z"
           id="path178" />
      </g>
      <path
         d="m 178.58767,106.25839 c 0,0 6.2179,14.24502 10.31435,20.97201 4.07987,6.69975 16.21481,17.55855 16.21481,17.55855 l -3.0421,2.00548 c 0,0 -12.31252,-4.96568 -17.75807,-6.19285 -8.30679,-1.87195 -31.03316,-3.2293 -31.03316,-3.2293"
         fill="none"
         fill-rule="nonzero"
         stroke="#000000"
         stroke-width="2"
         stroke-linecap="round"
         id="path182" />
      <g
         fill-rule="nonzero"
         stroke="#000000"
         stroke-width="2"
         stroke-linecap="butt"
         id="g188">
        <path
           d="m 231.90018,236.45006 c 0,3.58985 -4.2533,6.5 -9.5,6.5 -5.2467,0 -9.5,-2.91015 -9.5,-6.5 0,-3.58985 4.2533,-6.5 9.5,-6.5 5.2467,0 9.5,2.91015 9.5,6.5 z"
           fill="#ffbfa4"
           id="path184" />
        <path
           d="m 225.49028,237.61139 c -0.0522,0.91149 -1.55124,2.44324 -3.29105,2.42281 -1.73981,-0.0204 -3.06154,-1.58532 -3.00935,-2.4968 0.0522,-0.91149 1.50489,-1.63383 3.2447,-1.6134 1.73981,0.0204 3.10789,0.7759 3.0557,1.68739 z"
           fill="#ffbbd8"
           id="path186" />
      </g>
      <g
         data-paper-data="{&quot;index&quot;:null}"
         fill-rule="nonzero"
         stroke="#000000"
         stroke-width="2"
         stroke-linecap="butt"
         id="g194">
        <path
           d="m 325.54004,217.54168 c 4.70694,-2.50574 9.50467,-2.11563 10.71605,0.87133 1.21138,2.98696 -1.62233,7.43968 -6.32926,9.94542 -4.70693,2.50573 -9.50467,2.11563 -10.71605,-0.87133 -1.21138,-2.98696 1.62234,-7.43968 6.32926,-9.94542 z"
           fill="#ffbfa4"
           id="path190" />
        <path
           d="m 327.52509,222.52877 c 1.55393,-0.84791 3.10093,-0.94066 3.45533,-0.20717 0.3544,0.73348 -0.30329,2.66679 -1.85723,3.5147 -1.55393,0.84791 -3.41564,0.28932 -3.77004,-0.44417 -0.3544,-0.73348 0.61802,-2.01547 2.17193,-2.86336 z"
           fill="#ffbbd8"
           id="path192" />
      </g>
      <g
         fill-rule="nonzero"
         stroke="#000000"
         stroke-width="2"
         stroke-linecap="butt"
         id="g200">
        <path
           d="m 316.03225,315.575 c 0,0 -0.10538,3.8997 -0.16663,5.93388 -0.0753,2.50014 -0.25172,7.95945 -0.25172,7.95945 0,0 -7.20908,6.08865 -12.81332,7.91355 -7.50942,2.44528 -28.69086,4.24943 -28.69086,4.24943 0,0 -79.58929,-8.52992 -97.21556,-10.419 -6.58453,-0.70569 -13.56641,-1.45397 -13.56641,-1.45397 0,0 -0.53406,-5.0018 -0.65479,-7.40873 -0.15577,-3.10542 -0.20176,-14.66803 -0.20176,-14.66803 0,0 31.21601,11.90069 64.66885,16.89089 29.35847,4.37944 61.03724,2.01165 66.73361,0.96313 12.18719,-2.24327 22.15859,-9.9606 22.15859,-9.9606 z"
           fill="#a3a3a3"
           id="path196" />
        <path
           d="m 307.23551,362.01133 -40.35206,-0.53113 c 0,0 -21.70112,-15.88451 -45.38595,-22.38326 -22.83891,-6.26664 -58.89674,-5.24401 -58.99607,-7.46605 -0.002,-0.0389 0.47089,-15.83669 0.47089,-15.83669 0,0 7.94567,4.60709 21.96641,7.96193 12.62519,3.02092 27.86499,6.60821 44.74239,8.96539 15.60512,2.17948 32.82789,3.23478 45.52462,3.53632 29.20058,0.63556 40.37388,-9.4033 40.37388,-9.4033 0,0 0.36943,1.95278 0.0446,4.3374 -0.56974,4.1828 -2.02943,10.10964 -2.44332,12.13093 -1.56229,7.6298 -5.94542,18.68847 -5.94542,18.68847 z"
           fill="#ffffff"
           id="path198" />
      </g>
      <g
         fill-rule="nonzero"
         stroke="#000000"
         stroke-width="2"
         id="g206">
        <path
           d="m 174.18763,237.43329 c 0,0 -21.96705,-4.90375 -32.8962,-18.55781 -10.10561,-12.62519 -9.25134,-33.60183 -8.94663,-44.48417 0.30326,-10.83073 3.77212,-24.86214 7.24625,-34.237 1.43667,-3.87681 5.84506,-18.18051 9.22697,-27.71296 1.18591,-3.34268 4.88146,-9.54223 9.11204,-13.83991 2.67069,-2.71304 6.75757,-4.66816 6.75757,-4.66816 0,0 32.73025,61.25628 95.68115,61.58676 30.60848,1.87656 46.31885,-20.58676 46.31885,-20.58676 0,0 6.36769,4.28949 13.64176,11.42933 10.14349,9.95632 22.52176,24.98304 26.03732,37.4661 6.98113,24.78856 -14.17908,71.10457 -14.17908,71.10457 0,0 -7.35389,24.92771 -9.38689,35.4917 -2.65236,13.78238 -7.16919,37.14546 -7.16919,37.14546 0,0 -6.34749,5.86336 -17.28767,8.7988 -12.84116,3.4455 -31.44316,3.9903 -45.11702,3.12061 -13.11322,-0.83403 -41.64152,-2.85242 -61.76434,-7.49795 -18.73717,-4.32565 -29.58821,-11.32802 -29.58821,-11.32802 0,0 -1.46202,-24.5754 0.61982,-40.47282 2.76787,-21.13603 11.6935,-42.75776 11.6935,-42.75776 z"
           fill="#ff0000"
           stroke-linecap="butt"
           id="path202" />
        <path
           d="m 313.34382,141.00573 c 0,0 -10.87302,25.45125 -54.9667,24.81784 -43.08505,-0.61892 -88.40442,-41.38237 -100.98831,-64.48929"
           fill="none"
           stroke-linecap="round"
           id="path204" />
      </g>
      <g
         fill="#595959"
         fill-rule="nonzero"
         stroke="#000000"
         stroke-width="2"
         stroke-linecap="butt"
         id="g212">
        <path
           d="m 163.32772,332.25838 c 0,0 -0.29888,-5.23372 -0.42572,-7.45468 -0.10247,-1.79444 -0.27791,-2.36641 -0.27791,-2.36641 0,0 26.63052,11.77485 79.24267,16.11244 56.51756,3.75205 73.28046,-10.28135 73.28046,-10.28135 0,0 15.4082,13.89173 20.22811,20.06482 3.48535,4.46384 9.00849,13.53758 9.00849,13.53758 l -70.27412,0.26058 -125.61636,0.37439 c 0,0 3.50339,-13.04197 6.25203,-18.55356 2.10677,-4.22452 8.58236,-11.6938 8.58236,-11.6938 z"
           id="path208" />
        <path
           d="m 315.48242,328.64668 c -0.27556,3.22039 -0.66812,6.47212 -1.22459,9.59637 -0.22704,1.27466 -1.17785,5.91388 -2.63505,10.7597 -0.62645,2.08322 -1.31591,4.20462 -1.959,6.1133 -1.3104,3.88925 -2.42829,6.89527 -2.42829,6.89527 l -40.35206,-0.53113 c 0,0 -12.74746,-10.7426 -23.80394,-22.5648 -0.20263,-0.21666 20.73205,0.11971 40.97977,-1.70571 19.71247,-1.77717 31.07028,-8.93037 31.07028,-8.93037 0,0 0.3545,0.34848 0.35289,0.36738 z"
           id="path210" />
      </g>
      <g
         fill-rule="nonzero"
         stroke-linecap="butt"
         id="g226">
        <path
           d="m 315.13343,298.43908 v -99 h 179 v 99 z"
           fill="#ffffff"
           stroke="#000000"
           stroke-width="2"
           id="path214" />
        <g
           fill="#000000"
           stroke="none"
           stroke-width="1"
           font-family="Helvetica"
           font-weight="bold"
           font-size="18px"
           text-anchor="start"
           id="g224"
           transform="translate(2)">
          <path
             id="text218"
             style="mix-blend-mode:normal"
             d="m 387.36328,258.62891 v 20.35937 h 8.25 v -2.9082 h 1.65039 v -2.9082 h 1.65039 v -8.72461 h -1.65039 v -2.91016 h -1.65039 v -2.9082 z m 79.20508,0 v 20.35937 h 9.90039 v -2.9082 h 1.65039 v -5.81641 h -1.65039 v -2.9082 h 1.65039 v -5.81836 h -1.65039 v -2.9082 z m 16.50195,0 v 2.9082 h 1.65039 v 14.54297 h -3.30078 v 2.9082 h 9.90039 v -2.9082 h -3.30078 v -17.45117 z m 23.10157,0 v 17.45117 h 1.65039 v 2.9082 h 8.25 v -2.9082 h 1.65039 v -8.72461 h -1.65039 v -2.9082 h -6.60157 v -5.81836 z m -115.50782,2.9082 h 3.29883 v 2.91016 h 1.65039 v 8.72461 h -1.65039 v 2.9082 h -3.29883 z m 79.20508,0 h 4.94922 v 5.81836 h -4.94922 z m -67.6543,2.91016 v 14.54101 h 3.29883 v -8.72461 h 1.65039 v -2.9082 h -1.65039 v -2.9082 z m 4.94922,2.9082 h 4.95117 v -2.9082 h -4.95117 z m 8.25,-2.9082 v 2.9082 h 6.60156 v 2.9082 h -6.60156 v 2.90821 h -1.64844 v 2.9082 h 1.64844 v 2.9082 h 9.90235 v -11.63281 h -1.65039 v -2.9082 z m 13.20117,0 v 2.9082 h -1.65039 v 5.81641 h 1.65039 v 2.9082 h 6.60157 v 2.9082 h -6.60157 v 2.91016 h 8.25196 v -2.91016 h 1.64843 v -14.54101 z m 13.20118,0 v 2.9082 h -1.65039 v 8.72461 h 1.65039 v 2.9082 h 8.25 v -2.9082 h 1.65039 v -8.72461 h -1.65039 v -2.9082 z m 11.55078,0 v 14.54101 h 3.30078 v -11.63281 h 4.94922 v 11.63281 h 3.30078 v -11.63281 h -1.65039 v -2.9082 z m 41.2539,0 v 2.9082 h -1.65039 v 8.72461 h 1.65039 v 2.9082 h 8.25 v -2.9082 h 1.65039 v -8.72461 h -1.65039 v -2.9082 z m -64.35547,2.9082 h 4.95118 v 5.81641 h -4.95118 z m 13.20118,0 h 4.95117 v 8.72461 h -4.95117 z m 52.80468,0 h 4.94922 v 8.72461 h -4.94922 z m 13.19922,0 h 4.95118 v 8.72461 h -4.95118 z m -39.60156,2.9082 h 4.94922 v 5.81641 h -4.94922 z m -52.80469,2.90821 h 4.95117 v 2.9082 h -4.95117 z m -40.96093,13.54492 v 20.35937 h 3.30078 v -5.8164 h 6.60156 v -2.90821 h 1.65039 V 289.625 h -1.65039 v -2.9082 z m 31.35351,0 v 2.9082 h 3.30078 v -2.9082 z m 26.40235,0 v 5.81836 h -3.30079 v 2.9082 h 3.30079 v 11.63281 h 3.29882 v -11.63281 h 3.30078 v -2.9082 h -3.30078 v -5.81836 z m 21.45117,0 v 20.35937 h 11.55078 v -2.9082 h -8.25195 v -5.81641 h 6.60156 v -2.9082 h -6.60156 V 289.625 h 8.25195 v -2.9082 z m 21.45117,0 v 5.81836 h -6.60156 v 2.9082 h -1.64844 v 8.72461 h 1.64844 v 2.9082 h 9.90234 V 286.7168 Z m 9.90039,0 v 2.9082 h 3.30078 v -2.9082 z m 13.20117,0 v 5.81836 h -3.30078 v 2.9082 h 3.30078 v 11.63281 h 3.30078 v -11.63281 h 3.29883 v -2.9082 h -3.29883 V 286.7168 Z M 379.4043,289.625 h 4.95117 v 8.72656 h -4.95117 z m 11.55078,2.91016 v 2.9082 h 6.60156 v 2.9082 h -6.60156 v 2.90821 h -1.65039 v 2.9082 h 1.65039 v 2.9082 h 9.90039 v -11.63281 h -1.64844 v -2.9082 z m 14.85156,0 v 2.9082 h 1.65039 v 8.72461 h -3.30078 v 2.9082 h 9.90039 v -2.9082 h -3.29883 v -11.63281 z m 9.90039,0 v 14.54101 h 3.30078 v -11.63281 h 4.94922 v 11.63281 h 3.30078 v -11.63281 h -1.65039 v -2.9082 z m 69.30469,0 v 2.9082 h 1.65039 v 8.72461 h -3.30078 v 2.9082 h 9.90039 v -2.9082 h -3.29883 v -11.63281 z m 24.75195,0 v 2.9082 h -1.65039 v 8.72461 h 1.65039 v 2.9082 h 8.25 v -2.9082 h 1.65039 v -8.72461 h -1.65039 v -2.9082 z m 13.20117,0 v 14.54101 h 3.30078 v -8.72461 h 1.64844 v -2.9082 h -1.64844 v -2.9082 z m 4.94922,2.9082 h 4.95117 v -2.9082 h -4.95117 z m -56.10351,0 h 4.95117 v 8.72461 h -4.95117 z m 39.60351,0 h 4.94922 v 8.72461 h -4.94922 z m -118.80859,5.81641 h 4.95117 v 2.9082 h -4.95117 z"
             transform="translate(-49.63398,-38.56333)" />
          <path
             id="text218-5"
             style="mix-blend-mode:normal"
             d="m 616.91024,70.465731 v 85.107419 h 49.24804 v -12.1582 h 9.84961 v -12.15821 h 9.84961 V 94.782133 h -9.84961 v -12.1582 h -9.84961 V 70.465731 Z m 472.77156,0 v 85.107419 h 59.0957 v -12.1582 h 9.8496 v -24.31641 h -9.8496 v -12.1582 h 9.8496 V 82.623933 h -9.8496 V 70.465731 Z m 98.4922,0 v 12.158202 h 9.8496 v 60.791017 h -19.6993 v 12.1582 h 59.0977 v -12.1582 h -19.6992 V 70.465731 Z m 137.8925,0 v 72.949219 h 9.8496 v 12.1582 h 49.2461 v -12.1582 h 9.8497 v -36.47461 h -9.8497 V 94.782133 h -39.3984 V 70.465731 Z M 636.60946,82.623933 h 19.69921 v 12.1582 h 9.84961 v 36.474607 h -9.84961 v 12.15821 h -19.69921 z m 472.76954,0 h 29.5489 v 24.316407 h -29.5489 z m -403.82423,12.1582 v 60.791017 h 19.69922 v -36.47461 h 9.84961 v -12.1582 h -9.84961 V 94.782133 Z m 29.54883,12.158207 h 29.54883 V 94.782133 H 735.1036 Z m 49.24609,-12.158207 v 12.158207 h 39.39844 v 12.1582 h -39.39844 v 12.1582 h -9.84961 v 12.15821 h 9.84961 v 12.1582 h 59.09766 v -48.63281 h -9.84961 V 94.782133 Z m 78.79492,0 V 106.94034 H 853.295 v 24.3164 h 9.84961 v 12.15821 h 39.39844 v 12.1582 h -39.39844 v 12.1582 h 49.24805 v -12.1582 h 9.84961 V 94.782133 Z m 78.79492,0 v 12.158207 h -9.8496 v 36.47461 h 9.8496 v 12.1582 h 49.24802 v -12.1582 h 9.84965 v -36.47461 h -9.84965 V 94.782133 Z m 68.94537,0 v 60.791017 h 19.6992 v -48.63281 h 29.5488 v 48.63281 h 19.6993 v -48.63281 h -9.8496 V 94.782133 Z m 246.2344,0 v 12.158207 h -9.8477 v 36.47461 h 9.8477 v 12.1582 h 49.248 v -12.1582 h 9.8496 v -36.47461 h -9.8496 V 94.782133 Z M 872.99422,106.94034 h 29.54883 v 24.3164 h -29.54883 z m 78.79493,0 h 29.5488 v 36.47461 h -29.5488 z m 315.17975,0 h 29.5488 v 36.47461 h -29.5488 z m 78.7949,0 h 29.5488 v 36.47461 h -29.5488 z m -236.3848,12.1582 h 29.5489 v 24.31641 h -29.5489 z m -315.1797,12.1582 h 29.54883 v 12.15821 H 794.1993 Z m -244.49023,56.62305 v 85.10742 h 19.69921 v -24.3164 h 39.39844 V 236.5126 h 9.84961 v -36.47461 h -9.84961 v -12.1582 z m 187.13867,0 v 12.1582 h 19.69922 v -12.1582 z m 157.58984,0 v 24.31641 h -19.69922 v 12.1582 h 19.69922 v 48.63281 H 914.1368 V 224.3544 h 19.69922 V 212.1962 H 914.1368 v -24.31641 z m 128.04302,0 v 85.10742 h 68.9453 v -12.1582 h -49.248 V 236.5126 h 39.3984 v -12.1582 h -39.3984 v -24.31641 h 49.248 v -12.1582 z m 128.041,0 v 24.31641 h -39.3984 v 12.1582 h -9.8477 v 36.47461 h 9.8477 v 12.1582 h 59.0976 v -85.10742 z m 59.0957,0 v 12.1582 h 19.6992 v -12.1582 z m 78.7949,0 v 24.31641 h -19.6972 v 12.1582 h 19.6972 v 48.63281 h 19.6993 V 224.3544 h 19.6992 v -12.1582 h -19.6992 v -24.31641 z m -719.00392,12.1582 h 29.54883 v 36.47461 h -29.54883 z m 68.94532,12.15821 v 12.1582 h 39.39843 v 12.1582 H 638.3536 v 12.15821 h -9.84961 v 12.1582 h 9.84961 v 12.1582 h 59.09765 V 224.3544 h -9.84961 v -12.1582 z m 88.64453,0 v 12.1582 h 9.84961 v 36.47461 h -19.69922 v 12.1582 h 59.09765 v -12.1582 H 756.54696 V 212.1962 Z m 59.0957,0 v 60.79101 h 19.69922 V 224.3544 h 29.54883 v 48.63281 H 855.0411 V 224.3544 h -9.84961 v -12.1582 z m 413.67387,0 v 12.1582 h 9.8496 v 36.47461 h -19.6972 v 12.1582 h 59.0957 v -12.1582 h -19.6993 V 212.1962 Z m 147.7422,0 v 12.1582 h -9.8496 v 36.47461 h 9.8496 v 12.1582 h 49.2461 v -12.1582 h 9.8496 V 224.3544 h -9.8496 v -12.1582 z m 78.7949,0 v 60.79101 h 19.6973 V 236.5126 h 9.8496 v -12.1582 h -9.8496 v -12.1582 z m 29.5469,12.1582 h 29.5488 v -12.1582 h -29.5488 z m -334.8789,0 h 29.5488 v 36.47461 h -29.5488 z m 236.3848,0 h 29.5488 v 36.47461 h -29.5488 z m -709.15439,24.31641 h 29.54882 v 12.1582 h -29.54882 z" />
        </g>
      </g>
      <g
         fill-rule="nonzero"
         stroke="#000000"
         stroke-width="2"
         id="g254">
        <g
           id="g248">
          <path
             d="m 162.69877,297.57392 c -11.86133,-2.07383 -24.57702,-12.73505 -33.28148,-23.54917 -7.70134,-9.5679 -12.26275,-19.25555 -10.3144,-23.22136 -2.08531,-5.17064 32.61284,11.46147 32.47993,7.83332 -1.09888,-29.99235 21.66674,-32.32421 21.66674,-32.32421 0,0 35.43316,27.74314 28.909,45.37979 -1.132,3.06016 -18.74631,29.50317 -39.45977,25.88163 z"
             fill="#e00000"
             stroke-linecap="round"
             id="path228" />
          <path
             d="m 167.92761,215.5415 c 38.176,-47.36607 68.71196,7.40187 68.71196,7.40187"
             fill="#e00000"
             stroke-linecap="round"
             id="path230" />
          <path
             d="m 199.91246,149.39107 c 4.31568,11.75713 3.29257,27.79638 -2.77772,39.94511 -7.6845,15.37932 -21.56236,25.78719 -21.99146,27.34393 -8.76404,31.7958 -49.41228,14.5433 -68.54903,-0.97766 -5.0223,-4.07336 -12.26202,-41.3587 1.07131,-62.25436 9.49038,-14.87307 36.08393,-26.5923 36.5123,-26.72199"
             data-paper-data="{&quot;index&quot;:null}"
             fill="#e00000"
             stroke-linecap="round"
             id="path232" />
          <path
             d="m 153.05001,177.25019 c 0,0 26.28288,1.08973 38.56854,12.7431 18.61465,17.65656 24.38338,50.11357 10.52518,64.99883 -16.48101,17.70238 -56.28979,28.45639 -73.16727,15.35287 -42.31295,-32.85144 -21.81723,-57.21877 -21.81723,-57.21877"
             data-paper-data="{&quot;index&quot;:null}"
             fill="#e00000"
             stroke-linecap="round"
             id="path234" />
          <path
             d="m 315.36494,243.98745 -9.70389,-2.80337 6.67121,-6.82361 14.34174,-0.83266 z"
             fill="#ffd989"
             stroke-linecap="butt"
             id="path236" />
          <path
             d="m 319.17452,255.98862 -7.25084,-3.31335 5.89222,-4.69723 11.23225,0.9308 z"
             fill="#ffd989"
             stroke-linecap="butt"
             id="path238" />
          <path
             d="m 322.30715,266.646 -5.95666,-2.72197 4.84056,-3.85886 9.22746,0.76464 z"
             fill="#ffd989"
             stroke-linecap="butt"
             id="path240" />
          <path
             d="m 206.1186,251.21573 c 0,0 -8.6107,-11.28826 -4.51439,-19.84437 3.14647,-6.57201 15.70981,-10.94324 33.74217,-10.93378 13.1395,1.73105 44.17974,14.45856 44.17974,14.45856 0,0 7.19767,6.93753 7.96449,7.87048 2.21506,2.6951 9.17181,4.05674 9.31321,17.14792 0.12292,11.37723 -15.6826,13.69923 -15.6826,13.69923 0,0 -28.0631,29.55427 -57.3694,36.74 -15.46234,3.79127 -46.6361,-7.30831 -58.98984,-13.42727 -10.19972,-5.05209 -17.03477,-28.31261 -17.03477,-28.31261"
             data-paper-data="{&quot;index&quot;:null}"
             fill="#e00000"
             stroke-linecap="round"
             id="path242" />
          <path
             d="m 180.86163,256.64289 c 0,0 3.95192,-23.09826 17.83307,-36.66099 6.7653,-6.6101 15.85863,-6.95253 28.06108,-8.96411 35.58748,-5.86661 54.60945,14.16461 48.66263,44.53333"
             fill="#e00000"
             stroke-linecap="round"
             id="path244" />
          <path
             d="m 272.30266,227.97228 c 0,0 16.68587,7.24 20.35253,4.80682 4.84487,-3.21507 24.21644,0.74871 25.29906,4.96148 0.20553,0.92517 1.40832,3.10379 0.61216,4.03446 -3.8404,4.48913 -18.58287,8.27164 -18.58287,8.27164 0,0 3.49745,-0.89114 7.85784,-2.66973 4.92075,-2.00716 13.80112,0.23628 13.63558,4.68667 0.0622,8.96481 -15.75086,7.647 -15.75086,7.647 0,0 17.7351,-1.83073 18.91303,1.8552 2.55749,8.00272 -18.20596,10.39598 -31.27455,9.53988 -8.61909,-0.56463 -24.36498,13.68166 -24.36498,13.68166"
             fill="#e00000"
             stroke-linecap="round"
             id="path246" />
        </g>
        <path
           d="m 200.00709,149.0142 c 4.31568,11.75713 3.29257,27.79638 -2.77772,39.94511 -7.6845,15.37932 -21.56236,25.78719 -21.99146,27.34393 -8.76404,31.7958 -49.41228,14.5433 -68.54903,-0.97766 -5.0223,-4.07336 -12.26202,-41.3587 1.07131,-62.25436 9.49038,-14.87307 36.08393,-26.5923 36.5123,-26.72199"
           data-paper-data="{&quot;index&quot;:null}"
           fill="#ff0000"
           stroke-linecap="round"
           id="path250" />
        <path
           d="m 153.12872,177.94931 c 0,0 14.68462,-0.91153 28.24711,5.08607 8.53514,3.77441 14.62587,11.50294 18.33253,16.89166 3.2188,4.67943 -19.54867,24.69143 -40.94786,33.98045 -25.45621,11.05011 -51.66756,13.53324 -52.45237,11.68779 -3.18663,-7.49317 -5.09067,-12.35555 -4.77263,-17.60924 0.77229,-12.7572 9.75039,-20.47733 9.75039,-20.47733"
           data-paper-data="{&quot;index&quot;:null}"
           fill="#ff0000"
           stroke-linecap="round"
           id="path252" />
      </g>
    </g>
  </g>
</svg>
